<?xml version="1.0" standalone="no"?><!DOCTYPE svg PUBLIC "-//W3C//DTD SVG 1.1//EN" "http://www.w3.org/Graphics/SVG/1.1/DTD/svg11.dtd"><svg t="1615123208925" class="icon" viewBox="0 0 1024 1024" version="1.1" xmlns="http://www.w3.org/2000/svg" p-id="1682" xmlns:xlink="http://www.w3.org/1999/xlink" width="200" height="200"><defs><style type="text/css"></style></defs><path d="M648.704 170.496H375.296C281.6 170.496 204.8 247.296 204.8 341.504v341.504c0 93.696 76.8 170.496 170.496 170.496h272.896c93.696 0 170.496-76.8 170.496-170.496V341.504c0.512-94.208-76.288-171.008-169.984-171.008z" fill="#CCDAFF" p-id="1683"></path><path d="M384 333.312h85.504c13.824 0 25.6 11.776 25.6 25.6 0 14.336-11.776 25.6-25.6 25.6H384c-13.824 0-25.6-11.264-25.6-25.6s11.776-25.6 25.6-25.6zM640 690.688H384c-13.824 0-25.6-11.776-25.6-25.6 0-14.336 11.776-25.6 25.6-25.6h256c13.824 0 25.6 11.264 25.6 25.6s-11.776 25.6-25.6 25.6zM640 537.088H384c-13.824 0-25.6-11.776-25.6-25.6 0-14.336 11.776-25.6 25.6-25.6h256c13.824 0 25.6 11.264 25.6 25.6s-11.776 25.6-25.6 25.6z" fill="#7A7AF9" p-id="1684"></path></svg>