<?xml version="1.0" standalone="no"?><!DOCTYPE svg PUBLIC "-//W3C//DTD SVG 1.1//EN" "http://www.w3.org/Graphics/SVG/1.1/DTD/svg11.dtd"><svg t="1607574023530" class="icon" viewBox="0 0 1024 1024" version="1.1" xmlns="http://www.w3.org/2000/svg" p-id="2597" xmlns:xlink="http://www.w3.org/1999/xlink" width="150" height="150"><defs><style type="text/css"></style></defs><path d="M908.213073 209.095805l-56.344975 44.056975C775.043122 154.948683 655.559805 91.910244 521.390829 91.910244 289.717073 91.910244 102.200195 279.227317 101.900488 511.000976 101.60078 742.974439 289.517268 931.090732 521.390829 931.090732c181.123122 0 335.47239-114.887805 394.215025-275.830634 1.498537-4.195902-0.699317-8.891317-4.89522-10.289952l-56.644683-19.480975c-4.096-1.398634-8.59161 0.699317-10.090146 4.795317-1.798244 4.995122-3.796293 9.990244-5.894244 14.885463-17.283122 40.96-42.058927 77.724098-73.628098 109.293269-31.569171 31.569171-68.333268 56.344976-109.193365 73.728-42.258732 17.882537-87.314732 26.973659-133.669464 26.973658-46.454634 0-91.410732-9.091122-133.669463-26.973658-40.860098-17.283122-77.624195-42.058927-109.193366-73.728-31.569171-31.569171-56.344976-68.333268-73.628098-109.293269-17.882537-42.358634-26.973659-87.314732-26.973658-133.769366s9.091122-91.410732 26.973658-133.769365c17.283122-40.96 42.058927-77.724098 73.628098-109.293269 31.569171-31.569171 68.333268-56.344976 109.193366-73.728 42.258732-17.882537 87.314732-26.973659 133.669463-26.973658 46.454634 0 91.410732 9.091122 133.669464 26.973658 40.860098 17.283122 77.624195 42.058927 109.193365 73.728 9.890341 9.890341 19.181268 20.380098 27.772878 31.369366l-60.141268 46.954146c-5.294829 4.096-3.496585 12.487805 2.997073 14.086244l175.428683 42.958049c4.995122 1.198829 9.890341-2.597463 9.890342-7.692488l0.799219-180.723512c-0.099902-6.593561-7.79239-10.289951-12.987317-6.193951z" p-id="2598" fill="#999999"></path></svg>