<?xml version="1.0" standalone="no"?><!DOCTYPE svg PUBLIC "-//W3C//DTD SVG 1.1//EN" "http://www.w3.org/Graphics/SVG/1.1/DTD/svg11.dtd"><svg t="1616575452795" class="icon" viewBox="0 0 1024 1024" version="1.1" xmlns="http://www.w3.org/2000/svg" p-id="5494" xmlns:xlink="http://www.w3.org/1999/xlink" width="200" height="200"><defs><style type="text/css"></style></defs><path d="M533.333333 576V170.666667c0-93.866667-76.8-170.666667-170.666666-170.666667s-170.666667 76.8-170.666667 170.666667v405.333333c-55.466667 46.933333-85.333333 115.2-85.333333 192 0 140.8 115.2 256 256 256s256-115.2 256-256c0-72.533333-29.866667-140.8-85.333334-192z m-170.666666 311.466667c-64 0-119.466667-51.2-119.466667-119.466667 0-55.466667 34.133333-98.133333 85.333333-110.933333V320c0-17.066667 12.8-34.133333 34.133334-34.133333s34.133333 12.8 34.133333 34.133333v337.066667c51.2 12.8 85.333333 59.733333 85.333333 110.933333-4.266667 64-55.466667 119.466667-119.466666 119.466667zM908.8 332.8c-12.8-12.8-34.133333-12.8-46.933333 0L810.666667 384V145.066667c0-17.066667-12.8-34.133333-34.133334-34.133334s-34.133333 12.8-34.133333 34.133334V384l-51.2-51.2c-12.8-12.8-34.133333-12.8-46.933333 0s-12.8 34.133333 0 46.933333l106.666666 106.666667c4.266667 4.266667 8.533333 4.266667 8.533334 8.533333 4.266667 0 8.533333 4.266667 12.8 4.266667s8.533333 0 12.8-4.266667c4.266667 0 8.533333-4.266667 8.533333-8.533333l106.666667-106.666667c21.333333-12.8 21.333333-34.133333 8.533333-46.933333z" p-id="5495" fill="#2c2c2c"></path></svg>