<?xml version="1.0" standalone="no"?><!DOCTYPE svg PUBLIC "-//W3C//DTD SVG 1.1//EN" "http://www.w3.org/Graphics/SVG/1.1/DTD/svg11.dtd"><svg t="1616575445703" class="icon" viewBox="0 0 1024 1024" version="1.1" xmlns="http://www.w3.org/2000/svg" p-id="5293" xmlns:xlink="http://www.w3.org/1999/xlink" width="200" height="200"><defs><style type="text/css"></style></defs><path d="M725.333333 443.733333h-85.333333c-25.6 0-42.666667 17.066667-42.666667 42.666667s17.066667 42.666667 42.666667 42.666667h85.333333c25.6 0 42.666667-17.066667 42.666667-42.666667s-17.066667-42.666667-42.666667-42.666667z m-213.333333 132.266667V170.666667c0-93.866667-76.8-170.666667-170.666667-170.666667S170.666667 76.8 170.666667 170.666667v405.333333c-55.466667 46.933333-85.333333 115.2-85.333334 192 0 140.8 115.2 256 256 256s256-115.2 256-256c0-72.533333-29.866667-140.8-85.333333-192z m-170.666667 311.466667c-64 0-119.466667-51.2-119.466666-119.466667 0-55.466667 34.133333-98.133333 85.333333-110.933333V320c0-17.066667 12.8-34.133333 34.133333-34.133333s34.133333 12.8 34.133334 34.133333v337.066667c51.2 12.8 85.333333 59.733333 85.333333 110.933333 0 64-55.466667 119.466667-119.466667 119.466667zM810.666667 273.066667h-170.666667c-25.6 0-42.666667 17.066667-42.666667 42.666666s17.066667 42.666667 42.666667 42.666667h170.666667c25.6 0 42.666667-17.066667 42.666666-42.666667s-17.066667-42.666667-42.666666-42.666666z m85.333333-170.666667h-256c-25.6 0-42.666667 17.066667-42.666667 42.666667s17.066667 42.666667 42.666667 42.666666h256c25.6 0 42.666667-17.066667 42.666667-42.666666s-17.066667-42.666667-42.666667-42.666667z" p-id="5294" fill="#2c2c2c"></path></svg>