<?xml version="1.0" standalone="no"?><!DOCTYPE svg PUBLIC "-//W3C//DTD SVG 1.1//EN" "http://www.w3.org/Graphics/SVG/1.1/DTD/svg11.dtd"><svg t="1612421325659" class="icon" viewBox="0 0 1024 1024" version="1.1" xmlns="http://www.w3.org/2000/svg" p-id="3191" xmlns:xlink="http://www.w3.org/1999/xlink" width="200" height="200"><defs><style type="text/css"></style></defs><path d="M849.88928 393.00096l-288.71168 289.41312a121.94304 121.94304 0 0 1-172.7488 0 122.65472 122.65472 0 0 1 0-173.16864l288.71168-289.41312a121.94304 121.94304 0 0 1 172.7488 0 122.6496 122.6496 0 0 1 0 173.16864z" fill="#64F4AF" p-id="3192"></path><path d="M884.224 139.1616l-4.37248-4.38272a180.27008 180.27008 0 0 0-255.12448 0L294.7328 465.64864a181.1968 181.1968 0 0 0-48.4352 167.15776l-132.43904 132.79744c-37.888 38.016-35.29216 102.49728 5.8368 143.744A109.32224 109.32224 0 0 0 196.736 942.08a92.73856 92.73856 0 0 0 66.30912-26.88l137.36448-137.728 0.71168-0.59392a179.39968 179.39968 0 0 0 153.088-51.01568L884.224 394.97728a181.4528 181.4528 0 0 0 0-255.81568zM220.55936 872.59136c-14.47936 14.53056-40.66304 11.89888-58.368-5.84704s-20.32128-44.0064-5.8368-58.53184l115.10272-115.41504a180.83328 180.83328 0 0 0 23.28576 28.672l4.36224 4.3776a179.76832 179.76832 0 0 0 38.5024 29.36832zM841.728 352.36864l-329.98912 330.87488a119.8848 119.8848 0 0 1-144.09728 19.75808l407.26016-413.30688L732.16 247.34208 323.4048 662.1696a119.92064 119.92064 0 0 1-21.41696-68.608 121.344 121.344 0 0 1 5.16608-35.16416l34.67776 34.94912 42.5984-42.496-44.72832-45.056 107.10528-107.4176 43.69408 44.032 42.60352-42.496-43.80672-44.15488 130.9184-131.2768 42.53184 42.86464 42.5984-42.496-42.63936-42.97216 4.49536-4.5056a120.20736 120.20736 0 0 1 170.1376 0l4.38784 4.38784a120.8576 120.8576 0 0 1 0 170.60864zM165.65248 821.0944l42.7264 42.368 98.33472-99.72224-42.7264-42.368z" fill="#242F44" p-id="3193"></path></svg>