<?xml version="1.0" standalone="no"?><!DOCTYPE svg PUBLIC "-//W3C//DTD SVG 1.1//EN" "http://www.w3.org/Graphics/SVG/1.1/DTD/svg11.dtd"><svg t="1615123202703" class="icon" viewBox="0 0 1024 1024" version="1.1" xmlns="http://www.w3.org/2000/svg" p-id="1546" xmlns:xlink="http://www.w3.org/1999/xlink" width="200" height="200"><defs><style type="text/css"></style></defs><path d="M665.6 204.8H358.4c-84.48 0-153.6 69.12-153.6 153.6v307.2c0 84.48 69.12 153.6 153.6 153.6h307.2c84.48 0 153.6-69.12 153.6-153.6V358.4c0-84.48-69.12-153.6-153.6-153.6z" fill="#CCDAFF" p-id="1547"></path><path d="M609.792 577.024c9.216 9.216 9.216 23.552 0 32.768s-23.552 9.216-32.768 0L512 544.768l-65.024 65.024c-9.216 9.216-23.552 9.216-32.768 0s-9.216-23.552 0-32.768L479.232 512 414.208 446.976c-9.216-8.704-9.216-23.552 0-32.768s23.552-9.216 32.768 0L512 479.232l65.024-65.024c8.704-9.216 23.552-9.216 32.768 0s9.216 23.552 0 32.768L544.768 512l65.024 65.024z" fill="#7A7AF9" p-id="1548"></path></svg>