<?xml version="1.0" standalone="no"?><!DOCTYPE svg PUBLIC "-//W3C//DTD SVG 1.1//EN" "http://www.w3.org/Graphics/SVG/1.1/DTD/svg11.dtd"><svg t="1616575459118" class="icon" viewBox="0 0 1024 1024" version="1.1" xmlns="http://www.w3.org/2000/svg" p-id="5896" xmlns:xlink="http://www.w3.org/1999/xlink" width="200" height="200"><defs><style type="text/css"></style></defs><path d="M576 576V170.666667c0-93.866667-76.8-170.666667-170.666667-170.666667s-170.666667 76.8-170.666666 170.666667v405.333333c-55.466667 46.933333-85.333333 115.2-85.333334 192 0 140.8 115.2 256 256 256s256-115.2 256-256c0-72.533333-29.866667-140.8-85.333333-192z m-170.666667 311.466667c-64 0-119.466667-51.2-119.466666-119.466667 0-55.466667 34.133333-98.133333 85.333333-110.933333V320c0-17.066667 12.8-34.133333 34.133333-34.133333s34.133333 12.8 34.133334 34.133333v337.066667c51.2 12.8 85.333333 59.733333 85.333333 110.933333-4.266667 64-55.466667 119.466667-119.466667 119.466667zM832 102.4c-25.6 0-42.666667 17.066667-42.666667 42.666667v234.666666c0 25.6 17.066667 42.666667 42.666667 42.666667s42.666667-17.066667 42.666667-42.666667V145.066667c0-25.6-17.066667-42.666667-42.666667-42.666667zM832 465.066667c-25.6 0-42.666667 17.066667-42.666667 42.666666v21.333334c0 25.6 17.066667 42.666667 42.666667 42.666666s42.666667-17.066667 42.666667-42.666666v-21.333334c0-25.6-17.066667-42.666667-42.666667-42.666666z" p-id="5897" fill="#2c2c2c"></path></svg>